<svg width="1414" height="109" viewBox="0 0 1414 109" fill="none" xmlns="http://www.w3.org/2000/svg">
<path d="M22.95 49.25H73.35V68.75H22.95V49.25ZM24.75 107H0.450001V1.99999H79.8V21.5H24.75V107ZM96.2508 107V1.99999H120.551V107H96.2508ZM145.47 107V1.99999H190.92C200.32 1.99999 208.42 3.54999 215.22 6.65C222.02 9.64999 227.27 14 230.97 19.7C234.67 25.4 236.52 32.2 236.52 40.1C236.52 47.9 234.67 54.65 230.97 60.35C227.27 65.95 222.02 70.25 215.22 73.25C208.42 76.25 200.32 77.75 190.92 77.75H158.97L169.77 67.1V107H145.47ZM212.22 107L185.97 68.9H211.92L238.47 107H212.22ZM169.77 69.8L158.97 58.4H189.57C197.07 58.4 202.67 56.8 206.37 53.6C210.07 50.3 211.92 45.8 211.92 40.1C211.92 34.3 210.07 29.8 206.37 26.6C202.67 23.4 197.07 21.8 189.57 21.8H158.97L169.77 10.25V69.8ZM255.772 107V1.99999H275.872L320.572 76.1H309.922L353.872 1.99999H373.822L374.122 107H351.322L351.172 36.95H355.372L320.272 95.9H309.322L273.472 36.95H278.572V107H255.772ZM385.234 107L432.034 1.99999H456.034L502.984 107H477.484L439.084 14.3H448.684L410.134 107H385.234ZM408.634 84.5L415.084 66.05H469.084L475.684 84.5H408.634ZM513.878 107V1.99999H533.978L595.928 77.6H586.178V1.99999H610.178V107H590.228L528.128 31.4H537.878V107H513.878ZM669.52 108.8C661.12 108.8 653.07 107.7 645.37 105.5C637.67 103.2 631.47 100.25 626.77 96.65L635.02 78.35C639.52 81.55 644.82 84.2 650.92 86.3C657.12 88.3 663.37 89.3 669.67 89.3C674.47 89.3 678.32 88.85 681.22 87.95C684.22 86.95 686.42 85.6 687.82 83.9C689.22 82.2 689.92 80.25 689.92 78.05C689.92 75.25 688.82 73.05 686.62 71.45C684.42 69.75 681.52 68.4 677.92 67.4C674.32 66.3 670.32 65.3 665.92 64.4C661.62 63.4 657.27 62.2 652.87 60.8C648.57 59.4 644.62 57.6 641.02 55.4C637.42 53.2 634.47 50.3 632.17 46.7C629.97 43.1 628.87 38.5 628.87 32.9C628.87 26.9 630.47 21.45 633.67 16.55C636.97 11.55 641.87 7.59999 648.37 4.69999C654.97 1.7 663.22 0.199998 673.12 0.199998C679.72 0.199998 686.22 0.999997 692.62 2.59999C699.02 4.09999 704.67 6.39999 709.57 9.49999L702.07 27.95C697.17 25.15 692.27 23.1 687.37 21.8C682.47 20.4 677.67 19.7 672.97 19.7C668.27 19.7 664.42 20.25 661.42 21.35C658.42 22.45 656.27 23.9 654.97 25.7C653.67 27.4 653.02 29.4 653.02 31.7C653.02 34.4 654.12 36.6 656.32 38.3C658.52 39.9 661.42 41.2 665.02 42.2C668.62 43.2 672.57 44.2 676.87 45.2C681.27 46.2 685.62 47.35 689.92 48.65C694.32 49.95 698.32 51.7 701.92 53.9C705.52 56.1 708.42 59 710.62 62.6C712.92 66.2 714.07 70.75 714.07 76.25C714.07 82.15 712.42 87.55 709.12 92.45C705.82 97.35 700.87 101.3 694.27 104.3C687.77 107.3 679.52 108.8 669.52 108.8ZM754.577 107V64.1L760.127 78.8L713.927 1.99999H739.727L775.127 60.95H760.277L795.827 1.99999H819.677L773.477 78.8L778.877 64.1V107H754.577ZM809.599 107L856.399 1.99999H880.399L927.349 107H901.849L863.449 14.3H873.049L834.499 107H809.599ZM832.999 84.5L839.449 66.05H893.449L900.049 84.5H832.999ZM1010.24 1.99999H1034.54V107H1010.24V1.99999ZM962.543 107H938.243V1.99999H962.543V107ZM1012.04 63.95H960.743V43.4H1012.04V63.95ZM1081.14 83L1079.79 54.95L1130.04 1.99999H1157.04L1111.74 50.75L1098.24 65.15L1081.14 83ZM1059.39 107V1.99999H1083.54V107H1059.39ZM1131.24 107L1093.89 61.25L1109.79 44L1159.59 107H1131.24ZM1192.77 44.3H1243.32V63.2H1192.77V44.3ZM1194.57 87.5H1251.72V107H1170.42V1.99999H1249.77V21.5H1194.57V87.5ZM1271.06 107V1.99999H1291.16L1353.11 77.6H1343.36V1.99999H1367.36V107H1347.41L1285.31 31.4H1295.06V107H1271.06ZM1399.4 108.2C1395.4 108.2 1391.95 106.85 1389.05 104.15C1386.25 101.35 1384.85 97.8 1384.85 93.5C1384.85 89.2 1386.25 85.75 1389.05 83.15C1391.95 80.45 1395.4 79.1 1399.4 79.1C1403.5 79.1 1406.95 80.45 1409.75 83.15C1412.55 85.75 1413.95 89.2 1413.95 93.5C1413.95 97.8 1412.55 101.35 1409.75 104.15C1406.95 106.85 1403.5 108.2 1399.4 108.2Z" fill="white"/>
</svg>
