<svg width="1300" height="128" viewBox="0 0 1300 128" fill="none" xmlns="http://www.w3.org/2000/svg">
<path d="M27.94 56.7H88.42V80.1H27.94V56.7ZM30.1 126H0.940001V-8.58307e-06H96.16V23.4H30.1V126ZM101.501 126V-8.58307e-06H130.661V126H101.501ZM146.163 126V-8.58307e-06H200.703C211.983 -8.58307e-06 221.703 1.85999 229.863 5.57999C238.023 9.17999 244.323 14.4 248.763 21.24C253.203 28.08 255.423 36.24 255.423 45.72C255.423 55.08 253.203 63.18 248.763 70.02C244.323 76.74 238.023 81.9 229.863 85.5C221.703 89.1 211.983 90.9 200.703 90.9H162.363L175.323 78.12V126H146.163ZM226.263 126L194.763 80.28H225.903L257.763 126H226.263ZM175.323 81.36L162.363 67.68H199.083C208.083 67.68 214.803 65.76 219.243 61.92C223.683 57.96 225.903 52.56 225.903 45.72C225.903 38.76 223.683 33.36 219.243 29.52C214.803 25.68 208.083 23.76 199.083 23.76H162.363L175.323 9.89999V81.36ZM264.127 126V-8.58307e-06H288.247L341.887 88.92H329.107L381.847 -8.58307e-06H405.787L406.147 126H378.787L378.607 41.94H383.647L341.527 112.68H328.387L285.367 41.94H291.487V126H264.127ZM405.081 126L461.241 -8.58307e-06H490.041L546.381 126H515.781L469.701 14.76H481.221L434.961 126H405.081ZM433.161 99L440.901 76.86H505.701L513.621 99H433.161ZM545.053 126V-8.58307e-06H569.173L643.513 90.72H631.813V-8.58307e-06H660.613V126H636.673L562.153 35.28H573.853V126H545.053ZM661.624 126L715.804 51.3V72.54L663.964 -8.58307e-06H697.084L732.904 50.58L719.044 50.76L754.324 -8.58307e-06H786.004L734.524 71.28V50.4L789.064 126H755.404L718.324 72.54H731.644L695.104 126H661.624ZM872.478 -8.58307e-06H901.638V126H872.478V-8.58307e-06ZM815.238 126H786.078V-8.58307e-06H815.238V126ZM874.638 74.34H813.078V49.68H874.638V74.34ZM943.149 97.2L941.529 63.54L1001.83 -8.58307e-06H1034.23L979.869 58.5L963.669 75.78L943.149 97.2ZM917.049 126V-8.58307e-06H946.029V126H917.049ZM1003.27 126L958.449 71.1L977.529 50.4L1037.29 126H1003.27ZM1062.71 50.76H1123.37V73.44H1062.71V50.76ZM1064.87 102.6H1133.45V126H1035.89V-8.58307e-06H1131.11V23.4H1064.87V102.6ZM1142.25 126V-8.58307e-06H1166.37L1240.71 90.72H1229.01V-8.58307e-06H1257.81V126H1233.87L1159.35 35.28H1171.05V126H1142.25ZM1281.86 127.44C1277.06 127.44 1272.92 125.82 1269.44 122.58C1266.08 119.22 1264.4 114.96 1264.4 109.8C1264.4 104.64 1266.08 100.5 1269.44 97.38C1272.92 94.14 1277.06 92.52 1281.86 92.52C1286.78 92.52 1290.92 94.14 1294.28 97.38C1297.64 100.5 1299.32 104.64 1299.32 109.8C1299.32 114.96 1297.64 119.22 1294.28 122.58C1290.92 125.82 1286.78 127.44 1281.86 127.44Z" fill="white"/>
</svg>
